<?xml version="1.0" encoding="UTF-8" standalone="no"?>
<svg width="400px" height="400px" viewBox="0 0 400 400" version="1.1" xmlns="http://www.w3.org/2000/svg" xmlns:xlink="http://www.w3.org/1999/xlink">
    <!-- Generator: Sketch 3.6.1 (26313) - http://www.bohemiancoding.com/sketch -->
    <title>logo-dark</title>
    <desc>Created with Sketch.</desc>
    <defs></defs>
    <g id="Page-1" stroke="none" stroke-width="1" fill="none" fill-rule="evenodd">
        <g id="Artboard-1" transform="translate(-186.000000, -127.000000)">
            <g id="logo-dark" transform="translate(186.000000, 127.000000)">
                <g id="Group-3">
                    <circle id="Oval-1" fill="#FFFFFF" cx="200" cy="200" r="200"></circle>
                    <path d="M200.5,388 C304.053391,388 388,304.053391 388,200.5 C388,96.9466094 304.053391,13 200.5,13 C96.9466094,13 13,96.9466094 13,200.5 C13,304.053391 96.9466094,388 200.5,388 Z" id="Oval-2" fill="#000000"></path>
                </g>
                <g id="text" transform="translate(75.000000, 94.000000)">
                    <path d="M9.43066406,3.2109375 L23.9560547,40.5 L39.1318359,0.500976562 L53.6572266,40.5 L69.0859375,3.2109375 L78.2275391,3.2109375 L53.2958984,62.5410156 L38.9511719,23.0117188 L23.9921875,62.5771484 L0.2890625,3.2109375 L9.43066406,3.2109375 Z M79.8535156,30.8525391 C79.8535156,22.9996352 82.7320676,16.254911 88.4892578,10.6181641 C94.2223594,4.98141713 101.111613,2.16308594 109.157227,2.16308594 C117.106485,2.16308594 123.923474,5.00550543 129.608398,10.6904297 C135.317411,16.3753539 138.171875,23.2043872 138.171875,31.1777344 C138.171875,39.1992589 135.305367,46.0042038 129.572266,51.5927734 C123.815075,57.2054317 116.865601,60.0117188 108.723633,60.0117188 C101.521123,60.0117188 95.0534141,57.5185796 89.3203125,52.5322266 C83.009083,47.0159229 79.8535156,39.7894327 79.8535156,30.8525391 L79.8535156,30.8525391 Z M88.3447266,30.9609375 C88.3447266,37.127635 90.4163204,42.1982223 94.5595703,46.1728516 C98.6787315,50.1474808 103.436171,52.1347656 108.832031,52.1347656 C114.685576,52.1347656 119.623678,50.1113484 123.646484,46.0644531 C127.669291,41.9693806 129.680664,36.9831023 129.680664,31.1054688 C129.680664,25.1555692 127.693379,20.1692909 123.71875,16.1464844 C119.768209,12.0995891 114.878284,10.0761719 109.048828,10.0761719 C103.243461,10.0761719 98.3414913,12.0995891 94.3427734,16.1464844 C90.3440555,20.1452023 88.3447266,25.0833039 88.3447266,30.9609375 L88.3447266,30.9609375 Z M167.65625,35.2246094 L184.927734,59 L174.629883,59 L158.695312,36.1640625 L157.177734,36.1640625 L157.177734,59 L148.758789,59 L148.758789,3.2109375 L158.623047,3.2109375 C165.994177,3.2109375 171.317692,4.59601479 174.59375,7.36621094 C178.207049,10.4495597 180.013672,14.5204825 180.013672,19.5791016 C180.013672,23.5296421 178.881522,26.9260926 176.617188,29.7685547 C174.352853,32.6110168 171.365904,34.4296835 167.65625,35.2246094 L167.65625,35.2246094 Z M157.177734,28.8291016 L159.851562,28.8291016 C167.82491,28.8291016 171.811523,25.7819315 171.811523,19.6875 C171.811523,13.9784871 167.933307,11.1240234 160.176758,11.1240234 L157.177734,11.1240234 L157.177734,28.8291016 Z M201.729492,3.2109375 L201.729492,51.0869141 L218.133789,51.0869141 L218.133789,59 L193.310547,59 L193.310547,3.2109375 L201.729492,3.2109375 Z M226.119141,59 L226.119141,3.2109375 L237.826172,3.2109375 C243.43883,3.2109375 247.871077,3.76496842 251.123047,4.87304688 C254.615903,5.95703667 257.783514,7.79979168 260.625977,10.4013672 C266.383167,15.6526955 269.261719,22.5539937 269.261719,31.1054688 C269.261719,39.6810325 266.262725,46.6184631 260.264648,51.9179688 C257.253566,54.5677216 254.097998,56.4104766 250.797852,57.4462891 C247.714503,58.4821015 243.342476,59 237.681641,59 L226.119141,59 Z M234.538086,51.0869141 L238.332031,51.0869141 C242.113951,51.0869141 245.257474,50.6894571 247.762695,49.8945312 C250.267916,49.0514281 252.532216,47.7145274 254.555664,45.8837891 C258.698914,42.1018691 260.770508,37.1758116 260.770508,31.1054688 C260.770508,24.9869486 258.723002,20.0247586 254.62793,16.21875 C250.942364,12.8222486 245.510453,11.1240234 238.332031,11.1240234 L234.538086,11.1240234 L234.538086,51.0869141 Z" id="WORLD" fill="#FFFFFF"></path>
                    <path d="M15.1035156,79.2109375 L15.1035156,135 L6.68457031,135 L6.68457031,79.2109375 L15.1035156,79.2109375 Z M28.5087891,135 L28.5087891,75.4169922 L69.1943359,117.981445 L69.1943359,79.2109375 L77.6132812,79.2109375 L77.6132812,138.396484 L36.9277344,95.9404297 L36.9277344,135 L28.5087891,135 Z" id="IN" fill="#4D4D4D"></path>
                    <path d="M9.43066406,155.210938 L23.9560547,192.5 L39.1318359,152.500977 L53.6572266,192.5 L69.0859375,155.210938 L78.2275391,155.210938 L53.2958984,214.541016 L38.9511719,175.011719 L23.9921875,214.577148 L0.2890625,155.210938 L9.43066406,155.210938 Z M115.950195,163.124023 L93.5839844,163.124023 L93.5839844,176.529297 L115.299805,176.529297 L115.299805,184.442383 L93.5839844,184.442383 L93.5839844,203.086914 L115.950195,203.086914 L115.950195,211 L85.1650391,211 L85.1650391,155.210938 L115.950195,155.210938 L115.950195,163.124023 Z" id="WE" fill="#FFE500"></path>
                </g>
            </g>
        </g>
    </g>
</svg>