<?xml version="1.0" encoding="UTF-8" standalone="no"?>
<svg width="565px" height="128px" viewBox="0 0 565 128" version="1.1" xmlns="http://www.w3.org/2000/svg" xmlns:xlink="http://www.w3.org/1999/xlink">
    <!-- Generator: Sketch 3.6.1 (26313) - http://www.bohemiancoding.com/sketch -->
    <title>logo</title>
    <desc>Created with Sketch.</desc>
    <defs></defs>
    <g id="Welcome" stroke="none" stroke-width="1" fill="none" fill-rule="evenodd">
        <g id="Artboard-7" transform="translate(-845.000000, -787.000000)">
            <g id="logo" transform="translate(845.000000, 787.000000)">
                <path d="M64,128 C99.346224,128 128,99.346224 128,64 C128,28.653776 99.346224,0 64,0 C28.653776,0 0,28.653776 0,64 C0,99.346224 28.653776,128 64,128 Z M64,120 C94.927946,120 120,94.927946 120,64 C120,33.072054 94.927946,8 64,8 C33.072054,8 8,33.072054 8,64 C8,94.927946 33.072054,120 64,120 Z" id="Combined-Shape" fill="#CF3934"></path>
                <path d="M102.76,39 C100.83999,44.066692 98.8400104,49.3066396 96.76,54.72 C94.6799896,60.1333604 92.6133436,65.4933068 90.56,70.8 C88.5066564,76.1066932 86.5333428,81.2133088 84.64,86.12 C82.7466572,91.0266912 81.0533408,95.5066464 79.56,99.56 L66.44,67.08 C66.2266656,66.5999976 66.0933336,66.2800008 66.04,66.12 C65.9866664,65.9599992 65.9066672,65.6400024 65.8,65.16 C65.7466664,65.3733344 65.7066668,65.5866656 65.68,65.8 C65.6533332,66.0133344 65.6133336,66.1999992 65.56,66.36 C65.5066664,66.5733344 65.4266672,66.7866656 65.32,67 C63.3999904,71.2133544 61.5600088,75.31998 59.8,79.32 C59.0533296,81.0266752 58.2666708,82.7999908 57.44,84.64 C56.6133292,86.4800092 55.800004,88.2933244 55,90.08 C54.199996,91.8666756 53.4266704,93.5866584 52.68,95.24 C51.9333296,96.8933416 51.2666696,98.38666 50.68,99.72 C46.8399808,89.5332824 42.9733528,79.4133836 39.08,69.36 C35.1866472,59.3066164 31.3200192,49.1867176 27.48,39 L38.6,39 C41.000012,45.7733672 43.3066556,52.1466368 45.52,58.12 C47.7333444,64.0933632 49.4533272,69.3999768 50.68,74.04 C50.7866672,74.4666688 50.8933328,74.946664 51,75.48 C51.1066672,76.013336 51.2133328,76.4933312 51.32,76.92 C51.32,76.5999984 51.4399988,76.1333364 51.68,75.52 C51.9200012,74.9066636 52.0933328,74.4400016 52.2,74.12 C52.2533336,73.853332 52.4399984,73.3600036 52.76,72.64 C53.0800016,71.9199964 53.4533312,71.0800048 53.88,70.12 C54.3066688,69.1599952 54.786664,68.1066724 55.32,66.96 C55.853336,65.8133276 56.386664,64.6533392 56.92,63.48 C58.2000064,60.7599864 59.5866592,57.7733496 61.08,54.52 C60.3333296,52.2799888 59.6400032,50.1466768 59,48.12 C58.4133304,46.4133248 57.8400028,44.693342 57.28,42.96 C56.7199972,41.226658 56.306668,39.9066712 56.04,39 L65.48,39 C67.7733448,44.9200296 69.853324,50.3333088 71.72,55.24 C72.520004,57.3200104 73.319996,59.3866564 74.12,61.44 C74.920004,63.4933436 75.6399968,65.386658 76.28,67.12 C76.9200032,68.853342 77.4666644,70.3333272 77.92,71.56 C78.3733356,72.7866728 78.6799992,73.6133312 78.84,74.04 C79.0533344,74.5200024 79.1866664,74.9866644 79.24,75.44 C79.2933336,75.8933356 79.3733328,76.3599976 79.48,76.84 C79.5866672,76.3599976 79.6799996,75.8800024 79.76,75.4 C79.8400004,74.9199976 79.9333328,74.4666688 80.04,74.04 C80.573336,71.639988 81.306662,69.0666804 82.24,66.32 C83.173338,63.5733196 84.1999944,60.7066816 85.32,57.72 C86.4400056,54.7333184 87.6266604,51.6666824 88.88,48.52 C90.1333396,45.3733176 91.3466608,42.200016 92.52,39 L102.76,39 Z M104.04,67.96 C104.04,63.9066464 104.826659,60.0666848 106.4,56.44 C107.973341,52.8133152 110.106653,49.6400136 112.8,46.92 C115.493347,44.1999864 118.639982,42.040008 122.24,40.44 C125.840018,38.839992 129.693313,38.04 133.8,38.04 C137.853354,38.04 141.693315,38.839992 145.32,40.44 C148.946685,42.040008 152.119986,44.1999864 154.84,46.92 C157.560014,49.6400136 159.706659,52.8133152 161.28,56.44 C162.853341,60.0666848 163.64,63.9066464 163.64,67.96 C163.64,72.0666872 162.853341,75.919982 161.28,79.52 C159.706659,83.120018 157.560014,86.2666532 154.84,88.96 C152.119986,91.6533468 148.946685,93.7733256 145.32,95.32 C141.693315,96.8666744 137.853354,97.64 133.8,97.64 C129.693313,97.64 125.840018,96.8666744 122.24,95.32 C118.639982,93.7733256 115.493347,91.6533468 112.8,88.96 C110.106653,86.2666532 107.973341,83.120018 106.4,79.52 C104.826659,75.919982 104.04,72.0666872 104.04,67.96 L104.04,67.96 Z M113.88,67.96 C113.88,70.7866808 114.399995,73.4399876 115.44,75.92 C116.480005,78.4000124 117.919991,80.5599908 119.76,82.4 C121.600009,84.2400092 123.733321,85.693328 126.16,86.76 C128.586679,87.826672 131.213319,88.36 134.04,88.36 C136.760014,88.36 139.333321,87.826672 141.76,86.76 C144.186679,85.693328 146.293324,84.2400092 148.08,82.4 C149.866676,80.5599908 151.279995,78.4000124 152.32,75.92 C153.360005,73.4399876 153.88,70.7866808 153.88,67.96 C153.88,65.1333192 153.346672,62.4800124 152.28,60 C151.213328,57.5199876 149.773342,55.346676 147.96,53.48 C146.146658,51.613324 144.026679,50.146672 141.6,49.08 C139.173321,48.013328 136.573347,47.48 133.8,47.48 C131.026653,47.48 128.426679,48.013328 126,49.08 C123.573321,50.146672 121.466676,51.613324 119.68,53.48 C117.893324,55.346676 116.480005,57.5199876 115.44,60 C114.399995,62.4800124 113.88,65.1333192 113.88,67.96 L113.88,67.96 Z M173.24,97 L173.24,38.68 L189.72,38.68 C192.920016,38.68 195.839987,39.1066624 198.48,39.96 C201.120013,40.8133376 203.359991,42.039992 205.2,43.64 C207.040009,45.240008 208.466662,47.2133216 209.48,49.56 C210.493338,51.9066784 211,54.546652 211,57.48 C211,59.080008 210.840002,60.679992 210.52,62.28 C210.199998,63.880008 209.693337,65.4266592 209,66.92 C208.306663,68.4133408 207.400006,69.7866604 206.28,71.04 C205.159994,72.2933396 203.826674,73.3733288 202.28,74.28 C203.453339,76.146676 204.599994,77.9733244 205.72,79.76 C206.840006,81.5466756 207.973328,83.3466576 209.12,85.16 C210.266672,86.9733424 211.453327,88.8399904 212.68,90.76 C213.906673,92.6800096 215.239993,94.7599888 216.68,97 L204.92,97 C202.519988,93.266648 200.253344,89.73335 198.12,86.4 C195.986656,83.06665 193.933343,79.9066816 191.96,76.92 L191.16,76.92 L183,76.92 L183,97 L173.24,97 Z M183,67.72 L190.84,67.72 C192.866677,67.72 194.54666,67.3733368 195.88,66.68 C197.21334,65.9866632 198.279996,65.1466716 199.08,64.16 C199.880004,63.1733284 200.439998,62.1066724 200.76,60.96 C201.080002,59.8133276 201.24,58.7600048 201.24,57.8 C201.24,56.8933288 201.093335,55.8666724 200.8,54.72 C200.506665,53.5733276 199.973337,52.4933384 199.2,51.48 C198.426663,50.4666616 197.37334,49.6133368 196.04,48.92 C194.70666,48.2266632 193.00001,47.88 190.92,47.88 L183,47.88 L183,67.72 Z M224.12,97 L224.12,38.68 L233.88,38.68 L233.88,87.72 L262.2,87.72 L262.2,97 L224.12,97 Z M270.12,38.68 L285.24,38.68 C291.106696,38.68 296.07998,39.5733244 300.16,41.36 C304.24002,43.1466756 307.559987,45.4533192 310.12,48.28 C312.680013,51.1066808 314.533328,54.319982 315.68,57.92 C316.826672,61.520018 317.4,65.1066488 317.4,68.68 C317.4,73.0533552 316.613341,76.9866492 315.04,80.48 C313.466659,83.9733508 311.34668,86.9466544 308.68,89.4 C306.01332,91.8533456 302.906684,93.7333268 299.36,95.04 C295.813316,96.3466732 292.066686,97 288.12,97 L270.12,97 L270.12,38.68 Z M286.6,87.72 C289.640015,87.72 292.439987,87.2933376 295,86.44 C297.560013,85.5866624 299.773324,84.3200084 301.64,82.64 C303.506676,80.9599916 304.959995,78.9066788 306,76.48 C307.040005,74.0533212 307.56,71.240016 307.56,68.04 C307.56,64.4133152 306.93334,61.333346 305.68,58.8 C304.42666,56.266654 302.84001,54.2133412 300.92,52.64 C298.99999,51.0666588 296.866678,49.9200036 294.52,49.2 C292.173322,48.4799964 289.933344,48.12 287.8,48.12 L279.96,48.12 L279.96,87.72 L286.6,87.72 Z M345.4,38.68 L355.24,38.68 L355.24,97 L345.4,97 L345.4,38.68 Z M420.2,38.68 L420.2,99.72 C419.826665,99.2399976 419.000006,98.3600064 417.72,97.08 C416.439994,95.7999936 414.866676,94.2666756 413,92.48 C411.133324,90.6933244 409.066678,88.7200108 406.8,86.56 C404.533322,84.3999892 402.226678,82.2133444 399.88,80 C397.533322,77.7866556 395.240011,75.613344 393,73.48 C390.759989,71.346656 388.720009,69.3866756 386.88,67.6 C385.039991,65.8133244 383.49334,64.2933396 382.24,63.04 C380.98666,61.7866604 380.173335,60.9200024 379.8,60.44 C379.746666,60.3333328 379.533335,60.0533356 379.16,59.6 C378.786665,59.1466644 378.466668,58.7333352 378.2,58.36 L378.44,60.92 L378.44,97 L368.68,97 L368.68,36.04 C369.053335,36.5200024 369.879994,37.3866604 371.16,38.64 C372.440006,39.8933396 374.013324,41.3999912 375.88,43.16 C377.746676,44.9200088 379.813322,46.8399896 382.08,48.92 C384.346678,51.0000104 386.653322,53.1199892 389,55.28 C391.346678,57.4400108 393.639989,59.5733228 395.88,61.68 C398.120011,63.7866772 400.173324,65.706658 402.04,67.44 C403.906676,69.173342 405.46666,70.6533272 406.72,71.88 C407.97334,73.1066728 408.786665,73.9599976 409.16,74.44 L410.68,76.68 L410.44,73.96 L410.44,38.68 L420.2,38.68 Z M451.88,36.12 C452.146668,36.4933352 452.733329,37.3333268 453.64,38.64 C454.546671,39.9466732 455.679993,41.5466572 457.04,43.44 C458.400007,45.3333428 459.919992,47.4266552 461.6,49.72 C463.280008,52.0133448 464.986658,54.3466548 466.72,56.72 C468.453342,59.0933452 470.146658,61.413322 471.8,63.68 C473.453342,65.946678 474.94666,68.013324 476.28,69.88 C477.61334,71.746676 478.746662,73.3066604 479.68,74.56 C480.613338,75.8133396 481.186666,76.5999984 481.4,76.92 C481.506667,76.7599992 481.986662,76.080006 482.84,74.88 C483.693338,73.679994 484.773327,72.1733424 486.08,70.36 C487.386673,68.5466576 488.866658,66.4800116 490.52,64.16 C492.173342,61.8399884 493.879991,59.480012 495.64,57.08 C497.400009,54.679988 499.119992,52.3066784 500.8,49.96 C502.480008,47.6133216 504.02666,45.4800096 505.44,43.56 C506.85334,41.6399904 508.039995,40.01334 509,38.68 C509.960005,37.34666 510.573332,36.4933352 510.84,36.12 L510.84,97 L500.36,97 L500.36,67.24 C500.36,66.8133312 500.413333,66.3600024 500.52,65.88 C500.626667,65.3999976 500.68,65.1066672 500.68,65 L481.4,92.76 C481.133332,92.4399984 480.480005,91.5600072 479.44,90.12 C478.399995,88.6799928 477.160007,86.9733432 475.72,85 C474.279993,83.0266568 472.760008,80.906678 471.16,78.64 C469.559992,76.373322 468.05334,74.2666764 466.64,72.32 C465.22666,70.3733236 464.026672,68.7200068 463.04,67.36 C462.053328,65.9999932 461.506667,65.2133344 461.4,65 C461.4,65.1066672 461.453333,65.3999976 461.56,65.88 C461.666667,66.3600024 461.72,66.8133312 461.72,67.24 L461.72,97 L451.88,97 L451.88,36.12 Z M524.28,97 L524.28,38.68 L563,38.68 L563,47.56 L534.04,47.56 L534.04,63.24 L559.8,63.24 L559.8,72.36 L534.04,72.36 L534.04,87.88 L564.12,87.88 L564.12,97 L524.28,97 Z" id="WORLD-IN-ME" fill="#3A3A3A"></path>
            </g>
        </g>
    </g>
</svg>