<?xml version="1.0" encoding="UTF-8" standalone="no"?>
<svg width="32px" height="28px" viewBox="0 0 32 28" version="1.1" xmlns="http://www.w3.org/2000/svg" xmlns:xlink="http://www.w3.org/1999/xlink">
    <!-- Generator: Sketch 3.6.1 (26313) - http://www.bohemiancoding.com/sketch -->
    <title>Image Upload</title>
    <desc>Created with Sketch.</desc>
    <defs></defs>
    <g id="Page-1" stroke="none" stroke-width="1" fill="none" fill-rule="evenodd">
        <g id="Image-Upload">
            <path d="M25.9375,-1.99999999e-06 C22.701736,-1.99999999e-06 20.0625,2.639198 20.0625,5.874998 C20.0625,5.9174554 20.061596,5.9577506 20.0625,5.999998 L2.46875,5.999998 C1.126011,5.999998 0.03125,7.094698 0.03125,8.437498 L0.03125,25.562498 C0.03125,26.905298 1.126011,27.999998 2.46875,27.999998 L26.59375,27.999998 C27.936489,27.999998 29.03125,26.905298 29.03125,25.562498 L29.03125,10.843748 C30.686387,9.804523 31.78125,7.974567 31.78125,5.874998 C31.78125,2.639198 29.173264,-1.99999999e-06 25.9375,-1.99999999e-06 L25.9375,-1.99999999e-06 Z" id="Path" fill="#000000"></path>
            <path d="M23.03125,14.093748 C24.622625,14.106541 26.25067,14.879171 28.03125,17.062498 L28.03125,25.562498 C28.03125,26.368498 27.399819,26.999998 26.59375,26.999998 L2.46875,26.999998 C1.662681,26.999998 1.03125,26.368498 1.03125,25.562498 L1.03125,17.218748 C3.9411061,15.573071 5.972779,15.572784 7.625,16.249998 C9.196157,16.893998 10.4629,18.237848 11.71875,19.593748 C10.590699,20.327748 9.518024,20.874998 8.59375,20.874998 C8.41343204,20.8724479 8.24570932,20.9671856 8.15480614,21.1229344 C8.06390296,21.2786832 8.06390296,21.4713128 8.15480614,21.6270616 C8.24570932,21.7828104 8.41343204,21.8775481 8.59375,21.874998 C10.205786,21.874998 11.739998,20.926098 13.3125,19.749998 C14.885002,18.573898 16.491217,17.125998 18.125,15.999998 C19.758783,14.873998 21.414175,14.080648 23.03125,14.093748 L23.03125,14.093748 Z" id="Path" fill="#FFFFFF"></path>
            <path d="M2.46875,6.999998 L20.1875,6.999998 C20.724858,9.688197 23.095275,11.749998 25.9375,11.749998 C26.675503,11.749998 27.382054,11.594098 28.03125,11.343748 L28.03125,15.562498 C26.375794,13.866767 24.680455,13.107068 23.03125,13.093748 C21.087387,13.077748 19.270467,14.010398 17.5625,15.187498 C15.854533,16.364598 14.238463,17.800898 12.71875,18.937498 C12.66553,18.977498 12.61545,18.992248 12.5625,19.031248 C11.269137,17.630248 9.898068,16.090398 8,15.312498 C6.1706075,14.562713 3.8888571,14.608664 1.03125,16.093748 L1.03125,8.437498 C1.03125,7.631498 1.662681,6.999998 2.46875,6.999998 L2.46875,6.999998 Z" id="Path" fill="#FFFFFF"></path>
            <path d="M14.25,9.031248 C12.875211,9.031248 11.75,10.156448 11.75,11.531248 C11.75,12.906048 12.875211,14.031248 14.25,14.031248 C15.62479,14.031248 16.75,12.906048 16.75,11.531248 C16.75,10.156448 15.62479,9.031248 14.25,9.031248 L14.25,9.031248 Z" id="Path" fill="#000000"></path>
            <path d="M14.25,10.031248 C15.084349,10.031248 15.75,10.696948 15.75,11.531248 C15.75,12.365648 15.084349,13.031248 14.25,13.031248 C13.415652,13.031248 12.75,12.365648 12.75,11.531248 C12.75,10.696948 13.415652,10.031248 14.25,10.031248 L14.25,10.031248 Z" id="Path" fill="#FFFFFF"></path>
            <path d="M25.4375,0.999998 C25.601523,0.9833761 25.769042,0.999998 25.9375,0.999998 C28.632824,0.999998 30.78125,3.179598 30.78125,5.874998 C30.78125,8.570298 28.632824,10.749998 25.9375,10.749998 C23.242176,10.749998 21.0625,8.570298 21.0625,5.874998 C21.0625,3.3480605 22.977155,1.2493269 25.4375,0.999998 L25.4375,0.999998 Z" id="Path" fill="#FFFFFF"></path>
            <path d="M25.8125,2.124998 C25.7328989,2.13902268 25.6579091,2.17116114 25.59375,2.218748 C25.5558723,2.25538801 25.524232,2.29757502 25.5,2.343748 L23.4375,5.812498 C23.3560951,5.9627192 23.3606939,6.14283342 23.4496664,6.28900256 C23.5386389,6.43517169 23.699411,6.52673818 23.875,6.531248 L25.40625,6.531248 L25.40625,9.124998 C25.4036999,9.30531596 25.4984376,9.47303868 25.6541864,9.56394186 C25.8099352,9.65484504 26.0025648,9.65484504 26.1583136,9.56394186 C26.3140624,9.47303868 26.4088001,9.30531596 26.40625,9.124998 L26.40625,6.531248 L28,6.531248 C28.1855447,6.53294971 28.3573487,6.43707008 28.4483786,6.28101887 C28.5394085,6.12496767 28.5352401,5.93347179 28.4375,5.781248 L26.375,2.374998 C26.326786,2.30880699 26.2623786,2.25513419 26.1875,2.218748 C26.0801882,2.14101826 25.945417,2.10732546 25.8125,2.124998 L25.8125,2.124998 Z" id="Path" fill="#000000"></path>
            <path d="M25.9375,3.562498 L27.125,5.562498 L24.75,5.593748 L25.9375,3.562498 L25.9375,3.562498 Z" id="Path" fill="#FFFFFF"></path>
        </g>
    </g>
</svg>