<?xml version="1.0" encoding="UTF-8" standalone="no"?>
<svg width="32px" height="28px" viewBox="0 0 32 28" version="1.1" xmlns="http://www.w3.org/2000/svg" xmlns:xlink="http://www.w3.org/1999/xlink">
    <!-- Generator: Sketch 3.6.1 (26313) - http://www.bohemiancoding.com/sketch -->
    <title>Video Upload</title>
    <desc>Created with Sketch.</desc>
    <defs></defs>
    <g id="Page-1" stroke="none" stroke-width="1" fill="none" fill-rule="evenodd">
        <g id="Video-Upload">
            <path d="M20.0625,5.874998 C20.0625,5.9174554 20.061596,5.9577506 20.0625,5.999998 L2.46875,5.999998 C1.126011,5.999998 0.03125,7.094698 0.03125,8.437498 L0.03125,25.562498 C0.03125,26.905298 1.126011,27.999998 2.46875,27.999998 L26.59375,27.999998 C27.936489,27.999998 29.03125,26.905298 29.03125,25.562498 L29.03125,10.843748 C30.686387,9.804523 31.78125,7.974567 31.78125,5.874998 C31.78125,2.639198 29.173264,-2e-06 25.9375,-2e-06 C22.701736,-2e-06 20.0625,2.639198 20.0625,5.874998 Z" id="Path" fill="#000000"></path>
            <path d="M25.4375,0.999998 C25.601523,0.9833761 25.769042,0.999998 25.9375,0.999998 C28.632824,0.999998 30.78125,3.179598 30.78125,5.874998 C30.78125,8.570298 28.632824,10.749998 25.9375,10.749998 C23.242176,10.749998 21.0625,8.570298 21.0625,5.874998 C21.0625,3.3480605 22.977155,1.2493269 25.4375,0.999998 L25.4375,0.999998 Z" id="Path" fill="#FFFFFF"></path>
            <path d="M25.8125,2.124998 C25.7328989,2.13902268 25.6579091,2.17116114 25.59375,2.218748 C25.5558723,2.25538801 25.524232,2.29757502 25.5,2.343748 L23.4375,5.812498 C23.3560951,5.9627192 23.3606939,6.14283342 23.4496664,6.28900256 C23.5386389,6.43517169 23.699411,6.52673818 23.875,6.531248 L25.40625,6.531248 L25.40625,9.124998 C25.4036999,9.30531596 25.4984376,9.47303868 25.6541864,9.56394186 C25.8099352,9.65484504 26.0025648,9.65484504 26.1583136,9.56394186 C26.3140624,9.47303868 26.4088001,9.30531596 26.40625,9.124998 L26.40625,6.531248 L28,6.531248 C28.1855447,6.53294971 28.3573487,6.43707008 28.4483786,6.28101887 C28.5394085,6.12496767 28.5352401,5.93347179 28.4375,5.781248 L26.375,2.374998 C26.326786,2.30880699 26.2623786,2.25513419 26.1875,2.218748 C26.0801882,2.14101826 25.945417,2.10732546 25.8125,2.124998 L25.8125,2.124998 Z" id="Path" fill="#000000"></path>
            <path d="M25.9375,3.562498 L27.125,5.562498 L24.75,5.593748 L25.9375,3.562498 L25.9375,3.562498 Z" id="Path" fill="#FFFFFF"></path>
            <path d="M20.15625,7 C20.693608,9.688199 23.064025,11.75 25.90625,11.75 C26.644253,11.75 27.350804,11.5941 28,11.34375 C28,11.34375 27.999997,24.7414551 28,25.008606 C28.0000184,26.6396527 27.3145142,27.0418091 26.0377197,27.0418091 L2.30938721,27.0418091 C1.85845947,27.0418091 1,26.5651855 1,25.5048828 L1,8.4375 C1,7.6315 1.631431,7 2.4375,7 L20.15625,7 Z" id="Path" fill="#FFFFFF"></path>
            <g id="Group-3" transform="translate(11.000000, 13.000000)">
                <path d="M0.4374995,0.3622038 C0.23441451,0.427243917 0.0945717767,0.630651529 0.0937495,0.8622038 L0.0937495,7.8622038 C0.0912297195,8.0580519 0.188907141,8.23903056 0.346858241,8.3311687 C0.504809341,8.42330685 0.696565092,8.4111642 0.8437495,8.2997038 L6.3749995,4.7997038 C6.49954198,4.71688656 6.58275761,4.57642334 6.60101357,4.41820496 C6.61926954,4.25998659 6.57057152,4.10129722 6.4687495,3.9872038 C6.4319033,3.94887942 6.38970652,3.91723183 6.3437495,3.8934538 L0.8124995,0.4247038 C0.700725999,0.348168107 0.565027017,0.325551609 0.4374995,0.3622038 L0.4374995,0.3622038 Z" id="Path" fill="#000000"></path>
                <path d="M1.0624995,1.7684538 L5.1562495,4.3309538 L1.0624995,6.9559538 L1.0624995,1.7684538 L1.0624995,1.7684538 Z" id="Path" fill="#FFFFFF"></path>
            </g>
        </g>
    </g>
</svg>