<?xml version="1.0" encoding="UTF-8"?>
<svg width="200px" height="200px" viewBox="0 0 200 200" version="1.1" xmlns="http://www.w3.org/2000/svg" xmlns:xlink="http://www.w3.org/1999/xlink">
    <!-- Generator: Sketch 3.8.1 (29687) - http://www.bohemiancoding.com/sketch -->
    <title>Combined Shape</title>
    <desc>Created with Sketch.</desc>
    <defs></defs>
    <g id="Page-1" stroke="none" stroke-width="1" fill="none" fill-rule="evenodd">
        <path d="M100,200 C155.228475,200 200,155.228475 200,100 C200,44.771525 155.228475,0 100,0 C44.771525,0 0,44.771525 0,100 C0,155.228475 44.771525,200 100,200 Z M62.504,54.4 L68.84,88 L74.36,88 L80.648,54.4 L77.192,54.4 L71.768,83.632 L66.296,54.4 L62.504,54.4 Z M84.528,54.4 L84.528,88 L88.272,88 L88.272,54.4 L84.528,54.4 Z M96.856,69.28 L96.856,57.808 L106.936,57.808 L106.936,54.4 L93.112,54.4 L93.112,88 L106.936,88 L106.936,84.592 L96.856,84.592 L96.856,72.64 L105.064,72.64 L105.064,69.28 L96.856,69.28 Z M123.632,65.2 L126.848,88 L131.792,88 L136.352,54.4 L133.088,54.4 L129.296,83.056 L125.6,54.448 L121.904,54.448 L118.16,83.008 L114.224,54.4 L110.576,54.4 L115.184,88 L120.32,88 L123.632,65.2 Z M60.54,112.064 C55.5,112.064 53.1,115.28 53.1,120.464 C53.1,129.92 64.332,130.64 64.332,138.128 C64.332,141.152 63.084,142.928 60.396,142.928 C57.708,142.928 56.46,141.152 56.46,138.128 L56.46,136.016 L52.956,136.016 L52.956,137.936 C52.956,143.024 55.356,146.336 60.492,146.336 C65.628,146.336 68.076,143.024 68.076,137.936 C68.076,128.48 56.796,127.76 56.796,120.224 C56.796,117.248 57.948,115.472 60.636,115.472 C63.324,115.472 64.476,117.248 64.476,120.272 L64.476,121.376 L68.028,121.376 L68.028,120.464 C68.028,115.376 65.628,112.064 60.54,112.064 Z M80.98,146 L80.98,115.808 L87.172,115.808 L87.172,112.4 L71.044,112.4 L71.044,115.808 L77.236,115.808 L77.236,146 L80.98,146 Z M90.476,137.888 C90.476,142.976 93.02,146.336 98.156,146.336 C103.34,146.336 105.884,142.976 105.884,137.888 L105.884,120.512 C105.884,115.376 103.34,112.064 98.156,112.064 C93.02,112.064 90.476,115.376 90.476,120.512 L90.476,137.888 Z M94.172,120.32 C94.172,117.296 95.468,115.472 98.156,115.472 C100.892,115.472 102.14,117.296 102.14,120.32 L102.14,138.08 C102.14,141.152 100.892,142.928 98.156,142.928 C95.468,142.928 94.172,141.152 94.172,138.08 L94.172,120.32 Z M110.436,112.4 L110.436,146 L114.18,146 L114.18,131.648 L116.82,131.648 C119.94,131.648 121.716,132.848 121.716,136.64 L121.716,141.92 C121.716,144.176 121.908,145.04 122.34,146 L126.132,146 C125.508,144.848 125.46,143.456 125.46,141.968 L125.46,136.736 C125.46,133.136 124.308,130.64 121.236,129.728 C124.116,128.816 125.412,126.512 125.412,122.816 L125.412,120.08 C125.412,115.088 123.204,112.4 117.924,112.4 L110.436,112.4 Z M114.18,128.24 L114.18,115.808 L117.828,115.808 C120.612,115.808 121.716,117.392 121.716,120.416 L121.716,123.632 C121.716,127.28 119.94,128.24 116.964,128.24 L114.18,128.24 Z M135.82,146 L139.516,146 L139.516,133.952 L146.668,112.4 L143.116,112.4 L137.836,128.912 L132.604,112.4 L128.716,112.4 L135.82,133.952 L135.82,146 Z" id="Combined-Shape" fill="#FCEE21"></path>
    </g>
</svg>